<mxfile host="app.diagrams.net" modified="2024-06-10T13:40:05.424Z" agent="Mozilla/5.0 (Windows NT 10.0; Win64; x64) AppleWebKit/537.36 (KHTML, like Gecko) Chrome/125.0.0.0 Safari/537.36" etag="TczfGBYAtdNyp7EO4D0U" version="24.5.2" type="device">
  <diagram name="Pagina-1" id="dS4uybEMfqJ0Xu83tVP7">
    <mxGraphModel dx="1842" dy="1238" grid="1" gridSize="10" guides="1" tooltips="1" connect="1" arrows="1" fold="1" page="1" pageScale="1" pageWidth="827" pageHeight="1169" math="0" shadow="0">
      <root>
        <mxCell id="0" />
        <mxCell id="1" parent="0" />
        <mxCell id="qtluoc1eR0AZMDAhrb4A-11" value="" style="rounded=1;whiteSpace=wrap;html=1;fillColor=#f8cecc;strokeColor=#b85450;" vertex="1" parent="1">
          <mxGeometry x="-413" y="470" width="1220" height="1710" as="geometry" />
        </mxCell>
        <mxCell id="qtluoc1eR0AZMDAhrb4A-9" value="" style="rounded=1;whiteSpace=wrap;html=1;fillColor=#f8cecc;strokeColor=#b85450;" vertex="1" parent="1">
          <mxGeometry x="-15" y="40" width="457" height="400" as="geometry" />
        </mxCell>
        <mxCell id="qtluoc1eR0AZMDAhrb4A-6" value="" style="edgeStyle=orthogonalEdgeStyle;rounded=0;orthogonalLoop=1;jettySize=auto;html=1;" edge="1" parent="1" source="qtluoc1eR0AZMDAhrb4A-2">
          <mxGeometry relative="1" as="geometry">
            <mxPoint x="240" y="170" as="targetPoint" />
          </mxGeometry>
        </mxCell>
        <mxCell id="qtluoc1eR0AZMDAhrb4A-2" value="Start (setup)" style="ellipse;whiteSpace=wrap;html=1;" vertex="1" parent="1">
          <mxGeometry x="180" y="60" width="120" height="80" as="geometry" />
        </mxCell>
        <mxCell id="qtluoc1eR0AZMDAhrb4A-7" value="" style="edgeStyle=orthogonalEdgeStyle;rounded=0;orthogonalLoop=1;jettySize=auto;html=1;" edge="1" parent="1">
          <mxGeometry relative="1" as="geometry">
            <mxPoint x="240" y="230" as="sourcePoint" />
            <mxPoint x="240" y="260" as="targetPoint" />
          </mxGeometry>
        </mxCell>
        <mxCell id="qtluoc1eR0AZMDAhrb4A-8" value="" style="edgeStyle=orthogonalEdgeStyle;rounded=0;orthogonalLoop=1;jettySize=auto;html=1;" edge="1" parent="1">
          <mxGeometry relative="1" as="geometry">
            <mxPoint x="240" y="320" as="sourcePoint" />
            <mxPoint x="240" y="350" as="targetPoint" />
          </mxGeometry>
        </mxCell>
        <mxCell id="qtluoc1eR0AZMDAhrb4A-54" style="edgeStyle=orthogonalEdgeStyle;rounded=0;orthogonalLoop=1;jettySize=auto;html=1;" edge="1" parent="1" target="qtluoc1eR0AZMDAhrb4A-12">
          <mxGeometry relative="1" as="geometry">
            <mxPoint x="240" y="410" as="sourcePoint" />
          </mxGeometry>
        </mxCell>
        <mxCell id="qtluoc1eR0AZMDAhrb4A-10" value="&lt;font style=&quot;font-size: 43px;&quot;&gt;void setup()&lt;/font&gt;" style="text;html=1;align=center;verticalAlign=middle;whiteSpace=wrap;rounded=0;rotation=-90;" vertex="1" parent="1">
          <mxGeometry x="-107" y="210" width="275" height="30" as="geometry" />
        </mxCell>
        <mxCell id="qtluoc1eR0AZMDAhrb4A-84" style="edgeStyle=orthogonalEdgeStyle;rounded=0;orthogonalLoop=1;jettySize=auto;html=1;entryX=0.5;entryY=0;entryDx=0;entryDy=0;" edge="1" parent="1" source="qtluoc1eR0AZMDAhrb4A-12" target="qtluoc1eR0AZMDAhrb4A-60">
          <mxGeometry relative="1" as="geometry" />
        </mxCell>
        <mxCell id="qtluoc1eR0AZMDAhrb4A-12" value="Start (loop)" style="ellipse;whiteSpace=wrap;html=1;" vertex="1" parent="1">
          <mxGeometry x="180" y="490" width="120" height="80" as="geometry" />
        </mxCell>
        <mxCell id="qtluoc1eR0AZMDAhrb4A-18" style="edgeStyle=orthogonalEdgeStyle;rounded=0;orthogonalLoop=1;jettySize=auto;html=1;entryX=0;entryY=0.5;entryDx=0;entryDy=0;" edge="1" parent="1" source="qtluoc1eR0AZMDAhrb4A-17" target="qtluoc1eR0AZMDAhrb4A-12">
          <mxGeometry relative="1" as="geometry">
            <Array as="points">
              <mxPoint x="-290" y="1019" />
              <mxPoint x="-290" y="530" />
            </Array>
          </mxGeometry>
        </mxCell>
        <mxCell id="qtluoc1eR0AZMDAhrb4A-76" value="" style="edgeStyle=orthogonalEdgeStyle;rounded=0;orthogonalLoop=1;jettySize=auto;html=1;" edge="1" parent="1" source="qtluoc1eR0AZMDAhrb4A-17" target="qtluoc1eR0AZMDAhrb4A-75">
          <mxGeometry relative="1" as="geometry" />
        </mxCell>
        <mxCell id="qtluoc1eR0AZMDAhrb4A-17" value="Raspberry &lt;br&gt;connection = 1" style="rhombus;whiteSpace=wrap;html=1;" vertex="1" parent="1">
          <mxGeometry x="175" y="959" width="130" height="120" as="geometry" />
        </mxCell>
        <mxCell id="qtluoc1eR0AZMDAhrb4A-19" value="Nee" style="text;html=1;strokeColor=none;fillColor=none;align=center;verticalAlign=middle;whiteSpace=wrap;rounded=0;" vertex="1" parent="1">
          <mxGeometry x="115" y="996" width="60" height="30" as="geometry" />
        </mxCell>
        <mxCell id="qtluoc1eR0AZMDAhrb4A-29" style="edgeStyle=orthogonalEdgeStyle;rounded=0;orthogonalLoop=1;jettySize=auto;html=1;entryX=0.5;entryY=0;entryDx=0;entryDy=0;" edge="1" parent="1" source="qtluoc1eR0AZMDAhrb4A-22" target="qtluoc1eR0AZMDAhrb4A-26">
          <mxGeometry relative="1" as="geometry">
            <Array as="points">
              <mxPoint x="20" y="1349" />
              <mxPoint x="20" y="1599" />
              <mxPoint x="240" y="1599" />
            </Array>
          </mxGeometry>
        </mxCell>
        <mxCell id="qtluoc1eR0AZMDAhrb4A-85" value="" style="edgeStyle=orthogonalEdgeStyle;rounded=0;orthogonalLoop=1;jettySize=auto;html=1;" edge="1" parent="1" source="qtluoc1eR0AZMDAhrb4A-22" target="qtluoc1eR0AZMDAhrb4A-82">
          <mxGeometry relative="1" as="geometry" />
        </mxCell>
        <mxCell id="qtluoc1eR0AZMDAhrb4A-22" value="Read servo &lt;br&gt;needed?" style="rhombus;whiteSpace=wrap;html=1;" vertex="1" parent="1">
          <mxGeometry x="175" y="1289" width="130" height="120" as="geometry" />
        </mxCell>
        <mxCell id="qtluoc1eR0AZMDAhrb4A-23" value="Nee" style="text;html=1;strokeColor=none;fillColor=none;align=center;verticalAlign=middle;whiteSpace=wrap;rounded=0;" vertex="1" parent="1">
          <mxGeometry x="120" y="1329" width="60" height="30" as="geometry" />
        </mxCell>
        <mxCell id="qtluoc1eR0AZMDAhrb4A-35" style="edgeStyle=orthogonalEdgeStyle;rounded=0;orthogonalLoop=1;jettySize=auto;html=1;entryX=0;entryY=0.5;entryDx=0;entryDy=0;" edge="1" parent="1" source="qtluoc1eR0AZMDAhrb4A-26" target="qtluoc1eR0AZMDAhrb4A-12">
          <mxGeometry relative="1" as="geometry">
            <mxPoint x="100" y="930" as="targetPoint" />
            <Array as="points">
              <mxPoint x="-290" y="1674" />
              <mxPoint x="-290" y="530" />
            </Array>
          </mxGeometry>
        </mxCell>
        <mxCell id="qtluoc1eR0AZMDAhrb4A-90" value="" style="edgeStyle=orthogonalEdgeStyle;rounded=0;orthogonalLoop=1;jettySize=auto;html=1;" edge="1" parent="1" source="qtluoc1eR0AZMDAhrb4A-26" target="qtluoc1eR0AZMDAhrb4A-89">
          <mxGeometry relative="1" as="geometry" />
        </mxCell>
        <mxCell id="qtluoc1eR0AZMDAhrb4A-26" value="Turn off &lt;br&gt;Raspberry Pi?" style="rhombus;whiteSpace=wrap;html=1;" vertex="1" parent="1">
          <mxGeometry x="175" y="1614" width="130" height="120" as="geometry" />
        </mxCell>
        <mxCell id="qtluoc1eR0AZMDAhrb4A-27" value="Nee" style="text;html=1;strokeColor=none;fillColor=none;align=center;verticalAlign=middle;whiteSpace=wrap;rounded=0;" vertex="1" parent="1">
          <mxGeometry x="120" y="1652" width="60" height="30" as="geometry" />
        </mxCell>
        <mxCell id="qtluoc1eR0AZMDAhrb4A-39" style="edgeStyle=orthogonalEdgeStyle;rounded=0;orthogonalLoop=1;jettySize=auto;html=1;entryX=0;entryY=0.5;entryDx=0;entryDy=0;" edge="1" parent="1" source="qtluoc1eR0AZMDAhrb4A-38" target="qtluoc1eR0AZMDAhrb4A-12">
          <mxGeometry relative="1" as="geometry">
            <Array as="points">
              <mxPoint x="-290" y="1899" />
              <mxPoint x="-290" y="530" />
            </Array>
          </mxGeometry>
        </mxCell>
        <mxCell id="qtluoc1eR0AZMDAhrb4A-93" value="" style="edgeStyle=orthogonalEdgeStyle;rounded=0;orthogonalLoop=1;jettySize=auto;html=1;" edge="1" parent="1" source="qtluoc1eR0AZMDAhrb4A-38" target="qtluoc1eR0AZMDAhrb4A-92">
          <mxGeometry relative="1" as="geometry" />
        </mxCell>
        <mxCell id="qtluoc1eR0AZMDAhrb4A-38" value="Raspnerry off" style="rhombus;whiteSpace=wrap;html=1;" vertex="1" parent="1">
          <mxGeometry x="175" y="1839" width="130" height="120" as="geometry" />
        </mxCell>
        <mxCell id="qtluoc1eR0AZMDAhrb4A-43" value="Nee" style="text;html=1;strokeColor=none;fillColor=none;align=center;verticalAlign=middle;whiteSpace=wrap;rounded=0;" vertex="1" parent="1">
          <mxGeometry x="120" y="1875" width="60" height="30" as="geometry" />
        </mxCell>
        <mxCell id="qtluoc1eR0AZMDAhrb4A-55" value="Ja" style="text;html=1;strokeColor=none;fillColor=none;align=center;verticalAlign=middle;whiteSpace=wrap;rounded=0;" vertex="1" parent="1">
          <mxGeometry x="213" y="1079" width="20" height="30" as="geometry" />
        </mxCell>
        <mxCell id="qtluoc1eR0AZMDAhrb4A-56" value="Ja" style="text;html=1;strokeColor=none;fillColor=none;align=center;verticalAlign=middle;whiteSpace=wrap;rounded=0;" vertex="1" parent="1">
          <mxGeometry x="210" y="1399" width="10" height="30" as="geometry" />
        </mxCell>
        <mxCell id="qtluoc1eR0AZMDAhrb4A-57" value="Ja" style="text;html=1;strokeColor=none;fillColor=none;align=center;verticalAlign=middle;whiteSpace=wrap;rounded=0;" vertex="1" parent="1">
          <mxGeometry x="210" y="1729" width="20" height="30" as="geometry" />
        </mxCell>
        <mxCell id="qtluoc1eR0AZMDAhrb4A-58" value="Ja" style="text;html=1;strokeColor=none;fillColor=none;align=center;verticalAlign=middle;whiteSpace=wrap;rounded=0;" vertex="1" parent="1">
          <mxGeometry x="210" y="1949" width="20" height="30" as="geometry" />
        </mxCell>
        <mxCell id="qtluoc1eR0AZMDAhrb4A-59" value="&lt;font style=&quot;font-size: 43px;&quot;&gt;void loop()&lt;/font&gt;" style="text;html=1;align=center;verticalAlign=middle;whiteSpace=wrap;rounded=0;rotation=-90;" vertex="1" parent="1">
          <mxGeometry x="-547.5" y="1162.5" width="350" height="30" as="geometry" />
        </mxCell>
        <mxCell id="qtluoc1eR0AZMDAhrb4A-68" value="" style="edgeStyle=orthogonalEdgeStyle;rounded=0;orthogonalLoop=1;jettySize=auto;html=1;" edge="1" parent="1" source="qtluoc1eR0AZMDAhrb4A-60" target="qtluoc1eR0AZMDAhrb4A-65">
          <mxGeometry relative="1" as="geometry" />
        </mxCell>
        <mxCell id="qtluoc1eR0AZMDAhrb4A-60" value="&lt;p style=&quot;line-height: 120%;&quot;&gt;&lt;/p&gt;&lt;div style=&quot;line-height: 120%; white-space: pre;&quot;&gt;&lt;font style=&quot;background-color: rgb(255, 255, 255); font-size: 12px;&quot; face=&quot;Helvetica&quot;&gt;ConnectionPrint(CurrentPage, RaspConnection)&lt;/font&gt;&lt;/div&gt;&lt;div style=&quot;line-height: 120%; white-space: pre;&quot;&gt;&lt;font style=&quot;background-color: rgb(255, 255, 255); font-size: 12px;&quot; face=&quot;Helvetica&quot;&gt;(Serial Display/Connection_Print)&lt;/font&gt;&lt;/div&gt;&lt;p&gt;&lt;/p&gt;" style="shape=process;whiteSpace=wrap;html=1;backgroundOutline=1;" vertex="1" parent="1">
          <mxGeometry x="67.5" y="590" width="345" height="60" as="geometry" />
        </mxCell>
        <mxCell id="qtluoc1eR0AZMDAhrb4A-61" value="&lt;p style=&quot;line-height: 120%;&quot;&gt;&lt;/p&gt;&lt;div style=&quot;line-height: 120%; white-space: pre;&quot;&gt;&lt;span style=&quot;background-color: rgb(255, 255, 255);&quot;&gt;pinMode(buttonPin, INPUT_PULLUP)&lt;/span&gt;&lt;/div&gt;&lt;div style=&quot;line-height: 120%; white-space: pre;&quot;&gt;&lt;span style=&quot;background-color: rgb(255, 255, 255);&quot;&gt;(Arduino funtion)&lt;/span&gt;&lt;/div&gt;&lt;p&gt;&lt;/p&gt;" style="shape=process;whiteSpace=wrap;html=1;backgroundOutline=1;" vertex="1" parent="1">
          <mxGeometry x="75" y="170" width="330" height="60" as="geometry" />
        </mxCell>
        <mxCell id="qtluoc1eR0AZMDAhrb4A-62" value="&lt;p style=&quot;line-height: 120%;&quot;&gt;&lt;/p&gt;&lt;div style=&quot;line-height: 120%; white-space: pre;&quot;&gt;&lt;span style=&quot;background-color: rgb(255, 255, 255);&quot;&gt;Serial.Begin(9600)&lt;/span&gt;&lt;/div&gt;&lt;div style=&quot;line-height: 120%; white-space: pre;&quot;&gt;&lt;span style=&quot;background-color: rgb(255, 255, 255);&quot;&gt;(Arduino funtion)&lt;/span&gt;&lt;span style=&quot;background-color: rgb(255, 255, 255);&quot;&gt;&lt;br&gt;&lt;/span&gt;&lt;/div&gt;&lt;p&gt;&lt;/p&gt;" style="shape=process;whiteSpace=wrap;html=1;backgroundOutline=1;" vertex="1" parent="1">
          <mxGeometry x="147.5" y="260" width="185" height="60" as="geometry" />
        </mxCell>
        <mxCell id="qtluoc1eR0AZMDAhrb4A-63" value="&lt;p style=&quot;line-height: 120%;&quot;&gt;&lt;/p&gt;&lt;div style=&quot;line-height: 120%; white-space: pre;&quot;&gt;&lt;span style=&quot;background-color: rgb(255, 255, 255);&quot;&gt;WifiSetup(ssid, password)&lt;/span&gt;&lt;/div&gt;&lt;div style=&quot;line-height: 120%; white-space: pre;&quot;&gt;&lt;span style=&quot;background-color: rgb(255, 255, 255);&quot;&gt;(Wifi Data/Wifi_Setup)&lt;/span&gt;&lt;/div&gt;&lt;p&gt;&lt;/p&gt;" style="shape=process;whiteSpace=wrap;html=1;backgroundOutline=1;" vertex="1" parent="1">
          <mxGeometry x="131.25" y="350" width="217.5" height="60" as="geometry" />
        </mxCell>
        <mxCell id="qtluoc1eR0AZMDAhrb4A-71" value="" style="edgeStyle=orthogonalEdgeStyle;rounded=0;orthogonalLoop=1;jettySize=auto;html=1;" edge="1" parent="1" source="qtluoc1eR0AZMDAhrb4A-65" target="qtluoc1eR0AZMDAhrb4A-69">
          <mxGeometry relative="1" as="geometry" />
        </mxCell>
        <mxCell id="qtluoc1eR0AZMDAhrb4A-65" value="&lt;p style=&quot;line-height: 120%;&quot;&gt;&lt;/p&gt;&lt;div style=&quot;line-height: 120%; white-space: pre;&quot;&gt;&lt;span style=&quot;background-color: rgb(255, 255, 255);&quot;&gt;Raspconnection = Wi&lt;/span&gt;&lt;span style=&quot;background-color: rgb(255, 255, 255);&quot;&gt;fiCheck(host, port)&lt;/span&gt;&lt;/div&gt;&lt;div style=&quot;line-height: 120%; white-space: pre;&quot;&gt;&lt;span style=&quot;background-color: rgb(255, 255, 255);&quot;&gt;Connected (1); disconnected (0)&lt;/span&gt;&lt;br&gt;&lt;/div&gt;&lt;div style=&quot;line-height: 120%; white-space: pre;&quot;&gt;&lt;div style=&quot;line-height: 14.4px;&quot;&gt;&lt;font style=&quot;background-color: rgb(255, 255, 255);&quot; face=&quot;Helvetica&quot;&gt;(Wifi Data/Wifi_Check)&lt;/font&gt;&lt;/div&gt;&lt;/div&gt;&lt;p&gt;&lt;/p&gt;" style="shape=process;whiteSpace=wrap;html=1;backgroundOutline=1;" vertex="1" parent="1">
          <mxGeometry x="75" y="680" width="330" height="70" as="geometry" />
        </mxCell>
        <mxCell id="qtluoc1eR0AZMDAhrb4A-73" value="" style="edgeStyle=orthogonalEdgeStyle;rounded=0;orthogonalLoop=1;jettySize=auto;html=1;" edge="1" parent="1" source="qtluoc1eR0AZMDAhrb4A-69" target="qtluoc1eR0AZMDAhrb4A-72">
          <mxGeometry relative="1" as="geometry" />
        </mxCell>
        <mxCell id="qtluoc1eR0AZMDAhrb4A-69" value="&lt;p style=&quot;line-height: 120%;&quot;&gt;&lt;/p&gt;&lt;div style=&quot;line-height: 120%; white-space: pre;&quot;&gt;&lt;span style=&quot;background-color: rgb(255, 255, 255);&quot;&gt;&lt;font style=&quot;font-size: 12px;&quot; face=&quot;Helvetica&quot;&gt;ReadSerialData(SpeedServo, SpeedTranslation, ForceGripper, Autonome, CameraLight, RaspberryOff, CurrentPage, ReadServo, GripperHead)&lt;/font&gt;&lt;/span&gt;&lt;/div&gt;&lt;div style=&quot;line-height: 120%; white-space: pre;&quot;&gt;&lt;span style=&quot;background-color: rgb(255, 255, 255);&quot;&gt;&lt;font style=&quot;font-size: 12px;&quot; face=&quot;Helvetica&quot;&gt;(Serial Dispaly/ Read_Serial_Data)&lt;/font&gt;&lt;/span&gt;&lt;/div&gt;&lt;p&gt;&lt;/p&gt;" style="shape=process;whiteSpace=wrap;html=1;backgroundOutline=1;" vertex="1" parent="1">
          <mxGeometry x="-245" y="780" width="970" height="60" as="geometry" />
        </mxCell>
        <mxCell id="qtluoc1eR0AZMDAhrb4A-74" value="" style="edgeStyle=orthogonalEdgeStyle;rounded=0;orthogonalLoop=1;jettySize=auto;html=1;" edge="1" parent="1" source="qtluoc1eR0AZMDAhrb4A-72" target="qtluoc1eR0AZMDAhrb4A-17">
          <mxGeometry relative="1" as="geometry" />
        </mxCell>
        <mxCell id="qtluoc1eR0AZMDAhrb4A-72" value="&lt;p style=&quot;line-height: 120%;&quot;&gt;&lt;/p&gt;&lt;div style=&quot;line-height: 120%; white-space: pre;&quot;&gt;&lt;span style=&quot;background-color: rgb(255, 255, 255);&quot;&gt;&lt;font face=&quot;Helvetica&quot;&gt;ReadController(xValueJ1, yValueJ1, xValueJ2, yValueJ2, GripperButton, buttonPin)&lt;/font&gt;&lt;/span&gt;&lt;/div&gt;&lt;div style=&quot;line-height: 120%; white-space: pre;&quot;&gt;&lt;span style=&quot;background-color: rgb(255, 255, 255);&quot;&gt;&lt;font face=&quot;Helvetica&quot;&gt;(Controller/Read_Controller)&lt;/font&gt;&lt;/span&gt;&lt;/div&gt;&lt;p&gt;&lt;/p&gt;" style="shape=process;whiteSpace=wrap;html=1;backgroundOutline=1;" vertex="1" parent="1">
          <mxGeometry x="-92.5" y="860" width="665" height="60" as="geometry" />
        </mxCell>
        <mxCell id="qtluoc1eR0AZMDAhrb4A-78" value="" style="edgeStyle=orthogonalEdgeStyle;rounded=0;orthogonalLoop=1;jettySize=auto;html=1;" edge="1" parent="1" source="qtluoc1eR0AZMDAhrb4A-75" target="qtluoc1eR0AZMDAhrb4A-77">
          <mxGeometry relative="1" as="geometry" />
        </mxCell>
        <mxCell id="qtluoc1eR0AZMDAhrb4A-75" value="&lt;font style=&quot;font-size: 12px;&quot; face=&quot;Helvetica&quot;&gt;dataToSend =&amp;nbsp; (&lt;span style=&quot;white-space: pre;&quot;&gt;String&lt;/span&gt;&lt;span style=&quot;white-space: pre;&quot;&gt;(&lt;/span&gt;&lt;span style=&quot;white-space: pre;&quot;&gt;SpeedServo&lt;/span&gt;&lt;span style=&quot;white-space: pre;&quot;&gt;) &lt;/span&gt;&lt;span style=&quot;white-space: pre;&quot;&gt;+&lt;/span&gt;&lt;span style=&quot;white-space: pre;&quot;&gt; &lt;/span&gt;&lt;span style=&quot;white-space: pre;&quot;&gt;&quot;,&quot;&lt;/span&gt;&lt;span style=&quot;white-space: pre;&quot;&gt; &lt;/span&gt;&lt;span style=&quot;white-space: pre;&quot;&gt;+&lt;/span&gt;&lt;span style=&quot;white-space: pre;&quot;&gt; &lt;/span&gt;&lt;span style=&quot;white-space: pre;&quot;&gt;String&lt;/span&gt;&lt;span style=&quot;white-space: pre;&quot;&gt;(&lt;/span&gt;&lt;span style=&quot;white-space: pre;&quot;&gt;SpeedTranslation&lt;/span&gt;&lt;span style=&quot;white-space: pre;&quot;&gt;) &lt;/span&gt;&lt;span style=&quot;white-space: pre;&quot;&gt;+&lt;/span&gt;&lt;span style=&quot;white-space: pre;&quot;&gt; &lt;/span&gt;&lt;span style=&quot;white-space: pre;&quot;&gt;&quot;,&quot;&lt;/span&gt;&lt;span style=&quot;white-space: pre;&quot;&gt; &lt;/span&gt;&lt;span style=&quot;white-space: pre;&quot;&gt;+&lt;/span&gt;&lt;span style=&quot;white-space: pre;&quot;&gt; &lt;/span&gt;&lt;span style=&quot;white-space: pre;&quot;&gt;String&lt;/span&gt;&lt;span style=&quot;white-space: pre;&quot;&gt;(&lt;/span&gt;&lt;span style=&quot;white-space: pre;&quot;&gt;ForceGripper&lt;/span&gt;&lt;span style=&quot;white-space: pre;&quot;&gt;) &lt;/span&gt;&lt;span style=&quot;white-space: pre;&quot;&gt;+&lt;/span&gt;&lt;span style=&quot;white-space: pre;&quot;&gt; &lt;/span&gt;&lt;span style=&quot;white-space: pre;&quot;&gt;&quot;,&quot;&lt;/span&gt;&lt;span style=&quot;white-space: pre;&quot;&gt; &lt;/span&gt;&lt;span style=&quot;white-space: pre;&quot;&gt;+&lt;/span&gt;&lt;span style=&quot;white-space: pre;&quot;&gt; &lt;/span&gt;&lt;/font&gt;&lt;div&gt;&lt;font style=&quot;font-size: 12px;&quot; face=&quot;Helvetica&quot;&gt;&lt;span style=&quot;white-space: pre;&quot;&gt;String&lt;/span&gt;&lt;span style=&quot;white-space: pre;&quot;&gt;(&lt;/span&gt;&lt;span style=&quot;white-space: pre;&quot;&gt;Autonome&lt;/span&gt;&lt;span style=&quot;white-space: pre;&quot;&gt;) &lt;/span&gt;&lt;span style=&quot;white-space: pre;&quot;&gt;+&lt;/span&gt;&lt;span style=&quot;white-space: pre;&quot;&gt; &lt;/span&gt;&lt;span style=&quot;white-space: pre;&quot;&gt;&quot;,&quot;&lt;/span&gt;&lt;span style=&quot;white-space: pre;&quot;&gt; &lt;/span&gt;&lt;span style=&quot;white-space: pre;&quot;&gt;+&lt;/span&gt;&lt;span style=&quot;white-space: pre;&quot;&gt; &lt;/span&gt;&lt;span style=&quot;white-space: pre;&quot;&gt;String&lt;/span&gt;&lt;span style=&quot;white-space: pre;&quot;&gt;(&lt;/span&gt;&lt;span style=&quot;white-space: pre;&quot;&gt;CameraLight&lt;/span&gt;&lt;span style=&quot;white-space: pre;&quot;&gt;)&lt;/span&gt;&lt;/font&gt;&lt;span style=&quot;background-color: initial; white-space: pre;&quot;&gt;+&lt;/span&gt;&lt;span style=&quot;background-color: initial; white-space: pre;&quot;&gt; &lt;/span&gt;&lt;span style=&quot;background-color: initial; white-space: pre;&quot;&gt;&quot;,&quot;&lt;/span&gt;&lt;span style=&quot;background-color: initial; white-space: pre;&quot;&gt; &lt;/span&gt;&lt;span style=&quot;background-color: initial; white-space: pre;&quot;&gt;+&lt;/span&gt;&lt;span style=&quot;background-color: initial; white-space: pre;&quot;&gt; &lt;/span&gt;&lt;span style=&quot;background-color: initial; white-space: pre;&quot;&gt;String&lt;/span&gt;&lt;span style=&quot;background-color: initial; white-space: pre;&quot;&gt;(&lt;/span&gt;&lt;span style=&quot;background-color: initial; white-space: pre;&quot;&gt;xValueJ1&lt;/span&gt;&lt;span style=&quot;background-color: initial; white-space: pre;&quot;&gt;) &lt;/span&gt;&lt;span style=&quot;background-color: initial; white-space: pre;&quot;&gt;+&lt;/span&gt;&lt;span style=&quot;background-color: initial; white-space: pre;&quot;&gt; &lt;/span&gt;&lt;span style=&quot;background-color: initial; white-space: pre;&quot;&gt;&quot;,&quot;&lt;/span&gt;&lt;span style=&quot;background-color: initial; white-space: pre;&quot;&gt; &lt;/span&gt;&lt;span style=&quot;background-color: initial; white-space: pre;&quot;&gt;+&lt;/span&gt;&lt;span style=&quot;background-color: initial; white-space: pre;&quot;&gt; &lt;/span&gt;&lt;span style=&quot;background-color: initial; white-space: pre;&quot;&gt;String&lt;/span&gt;&lt;span style=&quot;background-color: initial; white-space: pre;&quot;&gt;(&lt;/span&gt;&lt;span style=&quot;background-color: initial; white-space: pre;&quot;&gt;yValueJ1&lt;/span&gt;&lt;span style=&quot;background-color: initial; white-space: pre;&quot;&gt;) &lt;/span&gt;&lt;span style=&quot;background-color: initial; white-space: pre;&quot;&gt;+&lt;/span&gt;&lt;span style=&quot;background-color: initial; white-space: pre;&quot;&gt; &lt;/span&gt;&lt;span style=&quot;background-color: initial; white-space: pre;&quot;&gt;&quot;,&quot;&lt;/span&gt;&lt;span style=&quot;background-color: initial; white-space: pre;&quot;&gt; &lt;/span&gt;&lt;span style=&quot;background-color: initial; white-space: pre;&quot;&gt;+&lt;/span&gt;&lt;span style=&quot;background-color: initial; white-space: pre;&quot;&gt; &lt;/span&gt;&lt;/div&gt;&lt;div&gt;&lt;span style=&quot;background-color: initial; white-space: pre;&quot;&gt;String&lt;/span&gt;&lt;span style=&quot;background-color: initial; white-space: pre;&quot;&gt;(&lt;/span&gt;&lt;span style=&quot;background-color: initial; white-space: pre;&quot;&gt;xValueJ2&lt;/span&gt;&lt;span style=&quot;background-color: initial; white-space: pre;&quot;&gt;) &lt;/span&gt;&lt;span style=&quot;background-color: initial; white-space: pre;&quot;&gt;+&lt;/span&gt;&lt;span style=&quot;background-color: initial; white-space: pre;&quot;&gt; &lt;/span&gt;&lt;span style=&quot;background-color: initial; white-space: pre;&quot;&gt;&quot;,&quot;&lt;/span&gt;&lt;span style=&quot;background-color: initial; white-space: pre;&quot;&gt; &lt;/span&gt;&lt;span style=&quot;background-color: initial; white-space: pre;&quot;&gt;+&lt;/span&gt;&lt;span style=&quot;background-color: initial; white-space: pre;&quot;&gt; &lt;/span&gt;&lt;span style=&quot;background-color: initial; white-space: pre;&quot;&gt;String&lt;/span&gt;&lt;span style=&quot;background-color: initial; white-space: pre;&quot;&gt;(&lt;/span&gt;&lt;span style=&quot;background-color: initial; white-space: pre;&quot;&gt;yValueJ2&lt;/span&gt;&lt;span style=&quot;background-color: initial; white-space: pre;&quot;&gt;) &lt;/span&gt;&lt;span style=&quot;background-color: initial; white-space: pre;&quot;&gt;+&lt;/span&gt;&lt;span style=&quot;background-color: initial; white-space: pre;&quot;&gt; &lt;/span&gt;&lt;span style=&quot;background-color: initial; white-space: pre;&quot;&gt;&quot;,&quot;&lt;/span&gt;&lt;span style=&quot;background-color: initial; white-space: pre;&quot;&gt; &lt;/span&gt;&lt;span style=&quot;background-color: initial; white-space: pre;&quot;&gt;+&lt;/span&gt;&lt;span style=&quot;background-color: initial; white-space: pre;&quot;&gt; &lt;/span&gt;&lt;span style=&quot;background-color: initial; white-space: pre;&quot;&gt;String&lt;/span&gt;&lt;span style=&quot;background-color: initial; white-space: pre;&quot;&gt;(&lt;/span&gt;&lt;span style=&quot;background-color: initial; white-space: pre;&quot;&gt;RaspberryOff&lt;/span&gt;&lt;span style=&quot;background-color: initial; white-space: pre;&quot;&gt;) &lt;/span&gt;&lt;span style=&quot;background-color: initial; white-space: pre;&quot;&gt;+&lt;/span&gt;&lt;span style=&quot;background-color: initial; white-space: pre;&quot;&gt; &lt;/span&gt;&lt;span style=&quot;background-color: initial; white-space: pre;&quot;&gt;&quot;,&quot;&lt;/span&gt;&lt;span style=&quot;background-color: initial; white-space: pre;&quot;&gt; &lt;/span&gt;&lt;span style=&quot;background-color: initial; white-space: pre;&quot;&gt;+&lt;/span&gt;&lt;span style=&quot;background-color: initial; white-space: pre;&quot;&gt; &lt;/span&gt;&lt;span style=&quot;background-color: initial; white-space: pre;&quot;&gt;String&lt;/span&gt;&lt;span style=&quot;background-color: initial; white-space: pre;&quot;&gt;(&lt;/span&gt;&lt;span style=&quot;background-color: initial; white-space: pre;&quot;&gt;ReadServo&lt;/span&gt;&lt;span style=&quot;background-color: initial; white-space: pre;&quot;&gt;) &lt;/span&gt;&lt;span style=&quot;background-color: initial; white-space: pre;&quot;&gt;+&lt;/span&gt;&lt;span style=&quot;background-color: initial; white-space: pre;&quot;&gt; &lt;/span&gt;&lt;span style=&quot;background-color: initial; white-space: pre;&quot;&gt;&quot;,&quot;&lt;/span&gt;&lt;span style=&quot;background-color: initial; white-space: pre;&quot;&gt; &lt;/span&gt;&lt;span style=&quot;background-color: initial; white-space: pre;&quot;&gt;+&lt;/span&gt;&lt;span style=&quot;background-color: initial; white-space: pre;&quot;&gt; &lt;/span&gt;&lt;span style=&quot;background-color: initial; white-space: pre;&quot;&gt;String&lt;/span&gt;&lt;span style=&quot;background-color: initial; white-space: pre;&quot;&gt;(&lt;/span&gt;&lt;span style=&quot;background-color: initial; white-space: pre;&quot;&gt;GripperButton&lt;/span&gt;&lt;span style=&quot;background-color: initial; white-space: pre;&quot;&gt;) &lt;/span&gt;&lt;span style=&quot;background-color: initial; white-space: pre;&quot;&gt;+&lt;/span&gt;&lt;span style=&quot;background-color: initial; white-space: pre;&quot;&gt; &lt;/span&gt;&lt;span style=&quot;background-color: initial; white-space: pre;&quot;&gt;&quot;,&quot;&lt;/span&gt;&lt;span style=&quot;background-color: initial; white-space: pre;&quot;&gt; &lt;/span&gt;&lt;span style=&quot;background-color: initial; white-space: pre;&quot;&gt;+&lt;/span&gt;&lt;span style=&quot;background-color: initial; white-space: pre;&quot;&gt; &lt;/span&gt;&lt;span style=&quot;background-color: initial; white-space: pre;&quot;&gt;String&lt;/span&gt;&lt;span style=&quot;background-color: initial; white-space: pre;&quot;&gt;(&lt;/span&gt;&lt;span style=&quot;background-color: initial; white-space: pre;&quot;&gt;GripperHead&lt;/span&gt;&lt;span style=&quot;background-color: initial; white-space: pre;&quot;&gt;));&lt;/span&gt;&lt;/div&gt;" style="shape=parallelogram;perimeter=parallelogramPerimeter;whiteSpace=wrap;html=1;fixedSize=1;" vertex="1" parent="1">
          <mxGeometry x="-190" y="1109" width="860" height="71" as="geometry" />
        </mxCell>
        <mxCell id="qtluoc1eR0AZMDAhrb4A-79" value="" style="edgeStyle=orthogonalEdgeStyle;rounded=0;orthogonalLoop=1;jettySize=auto;html=1;" edge="1" parent="1" source="qtluoc1eR0AZMDAhrb4A-77" target="qtluoc1eR0AZMDAhrb4A-22">
          <mxGeometry relative="1" as="geometry" />
        </mxCell>
        <mxCell id="qtluoc1eR0AZMDAhrb4A-77" value="&lt;p style=&quot;line-height: 120%;&quot;&gt;&lt;/p&gt;&lt;div style=&quot;line-height: 120%; white-space: pre;&quot;&gt;&lt;span style=&quot;background-color: rgb(255, 255, 255);&quot;&gt;WifiSend(dataToSend)&lt;/span&gt;&lt;/div&gt;&lt;div style=&quot;line-height: 120%; white-space: pre;&quot;&gt;&lt;span style=&quot;background-color: rgb(255, 255, 255);&quot;&gt;(Wifi Data/Wifi_Send)&lt;/span&gt;&lt;/div&gt;&lt;p&gt;&lt;/p&gt;" style="shape=process;whiteSpace=wrap;html=1;backgroundOutline=1;" vertex="1" parent="1">
          <mxGeometry x="137.5" y="1200" width="205" height="60" as="geometry" />
        </mxCell>
        <mxCell id="qtluoc1eR0AZMDAhrb4A-88" value="" style="edgeStyle=orthogonalEdgeStyle;rounded=0;orthogonalLoop=1;jettySize=auto;html=1;" edge="1" parent="1" source="qtluoc1eR0AZMDAhrb4A-82" target="qtluoc1eR0AZMDAhrb4A-86">
          <mxGeometry relative="1" as="geometry" />
        </mxCell>
        <mxCell id="qtluoc1eR0AZMDAhrb4A-82" value="&lt;p style=&quot;line-height: 120%;&quot;&gt;&lt;/p&gt;&lt;div style=&quot;line-height: 120%; white-space: pre;&quot;&gt;&lt;span style=&quot;background-color: rgb(255, 255, 255);&quot;&gt;WifiRead(DataRasp)&lt;/span&gt;&lt;/div&gt;&lt;div style=&quot;line-height: 120%; white-space: pre;&quot;&gt;&lt;span style=&quot;background-color: rgb(255, 255, 255);&quot;&gt;(Wifi Data/Wifi_Read)&lt;/span&gt;&lt;/div&gt;&lt;p&gt;&lt;/p&gt;" style="shape=process;whiteSpace=wrap;html=1;backgroundOutline=1;" vertex="1" parent="1">
          <mxGeometry x="127.5" y="1430" width="225" height="60" as="geometry" />
        </mxCell>
        <mxCell id="qtluoc1eR0AZMDAhrb4A-87" value="" style="edgeStyle=orthogonalEdgeStyle;rounded=0;orthogonalLoop=1;jettySize=auto;html=1;" edge="1" parent="1" source="qtluoc1eR0AZMDAhrb4A-86" target="qtluoc1eR0AZMDAhrb4A-26">
          <mxGeometry relative="1" as="geometry" />
        </mxCell>
        <mxCell id="qtluoc1eR0AZMDAhrb4A-86" value="&lt;p style=&quot;line-height: 120%;&quot;&gt;&lt;/p&gt;&lt;div style=&quot;line-height: 120%; white-space: pre;&quot;&gt;&lt;span style=&quot;background-color: rgb(255, 255, 255);&quot;&gt;SendServoData(DataRasp, ReadServo)&lt;/span&gt;&lt;/div&gt;&lt;div style=&quot;line-height: 120%; white-space: pre;&quot;&gt;&lt;span style=&quot;background-color: rgb(255, 255, 255);&quot;&gt;(Serial Display/Send_Servo_Data)&lt;/span&gt;&lt;/div&gt;&lt;p&gt;&lt;/p&gt;" style="shape=process;whiteSpace=wrap;html=1;backgroundOutline=1;" vertex="1" parent="1">
          <mxGeometry x="87.5" y="1510" width="305" height="70" as="geometry" />
        </mxCell>
        <mxCell id="qtluoc1eR0AZMDAhrb4A-91" value="" style="edgeStyle=orthogonalEdgeStyle;rounded=0;orthogonalLoop=1;jettySize=auto;html=1;" edge="1" parent="1" source="qtluoc1eR0AZMDAhrb4A-89" target="qtluoc1eR0AZMDAhrb4A-38">
          <mxGeometry relative="1" as="geometry" />
        </mxCell>
        <mxCell id="qtluoc1eR0AZMDAhrb4A-89" value="&lt;p style=&quot;line-height: 120%;&quot;&gt;&lt;/p&gt;&lt;div style=&quot;line-height: 120%; white-space: pre;&quot;&gt;&lt;span style=&quot;background-color: rgb(255, 255, 255);&quot;&gt;WifiRead(DataRasp)&lt;/span&gt;&lt;/div&gt;&lt;div style=&quot;line-height: 120%; white-space: pre;&quot;&gt;&lt;span style=&quot;background-color: rgb(255, 255, 255);&quot;&gt;(Wifi Data/Wifi_Read)&lt;/span&gt;&lt;/div&gt;&lt;p&gt;&lt;/p&gt;" style="shape=process;whiteSpace=wrap;html=1;backgroundOutline=1;" vertex="1" parent="1">
          <mxGeometry x="127.5" y="1753" width="225" height="60" as="geometry" />
        </mxCell>
        <mxCell id="qtluoc1eR0AZMDAhrb4A-94" style="edgeStyle=orthogonalEdgeStyle;rounded=0;orthogonalLoop=1;jettySize=auto;html=1;entryX=0;entryY=0.5;entryDx=0;entryDy=0;exitX=0;exitY=0.5;exitDx=0;exitDy=0;" edge="1" parent="1" source="qtluoc1eR0AZMDAhrb4A-95" target="qtluoc1eR0AZMDAhrb4A-12">
          <mxGeometry relative="1" as="geometry">
            <Array as="points">
              <mxPoint x="-290" y="2105" />
              <mxPoint x="-290" y="530" />
            </Array>
          </mxGeometry>
        </mxCell>
        <mxCell id="qtluoc1eR0AZMDAhrb4A-99" value="" style="edgeStyle=orthogonalEdgeStyle;rounded=0;orthogonalLoop=1;jettySize=auto;html=1;" edge="1" parent="1" source="qtluoc1eR0AZMDAhrb4A-92" target="qtluoc1eR0AZMDAhrb4A-95">
          <mxGeometry relative="1" as="geometry" />
        </mxCell>
        <mxCell id="qtluoc1eR0AZMDAhrb4A-92" value="&lt;p style=&quot;line-height: 120%;&quot;&gt;&lt;/p&gt;&lt;div style=&quot;line-height: 120%; white-space: pre;&quot;&gt;&lt;span style=&quot;background-color: rgb(255, 255, 255);&quot;&gt;&lt;font style=&quot;font-size: 12px;&quot; face=&quot;Helvetica&quot;&gt;PrintToDisplay(&lt;span style=&quot;&quot;&gt;&quot;page421.t12.txt=&lt;/span&gt;&lt;span style=&quot;&quot;&gt;\&quot;&lt;/span&gt;&lt;span style=&quot;&quot;&gt;OFF&lt;/span&gt;&lt;span style=&quot;&quot;&gt;\&quot;&lt;/span&gt;&lt;span style=&quot;&quot;&gt;&quot;)&lt;/span&gt;&lt;/font&gt;&lt;/span&gt;&lt;/div&gt;&lt;div style=&quot;line-height: 120%; white-space: pre;&quot;&gt;&lt;span style=&quot;background-color: rgb(255, 255, 255);&quot;&gt;(Serial Display/Print_To_Dispaly)&lt;/span&gt;&lt;/div&gt;&lt;p&gt;&lt;/p&gt;" style="shape=process;whiteSpace=wrap;html=1;backgroundOutline=1;" vertex="1" parent="1">
          <mxGeometry x="88.75" y="1990" width="302.5" height="60" as="geometry" />
        </mxCell>
        <mxCell id="qtluoc1eR0AZMDAhrb4A-95" value="RaspberryOff = 0;" style="shape=parallelogram;perimeter=parallelogramPerimeter;whiteSpace=wrap;html=1;fixedSize=1;" vertex="1" parent="1">
          <mxGeometry x="155" y="2080" width="170" height="50" as="geometry" />
        </mxCell>
      </root>
    </mxGraphModel>
  </diagram>
</mxfile>
